# xmcd
#
# Track frame offsets:
#	150
#	13286
#	27253
#	40307
#	54166
#	67156
#	82236
#	96505
#	109921
#	124017
#	138052
#	149905
#	162343
#	173683
#	194673
#	208374
#	242655
#	259018
#
# Disc length: 3740
#
# Revision: 1
# Processed by: cddbd v1.5.1PL0 Copyright (c) Steve Scherf et al.
# Submitted via: CDex 1.50
# Normalized: r0:DSETVAR2
#
DISCID=170e9a12
DTITLE=Various Artist - Piano Blues
DYEAR=2000
DGENRE=Blues
TTITLE0=The Five Blazes - Chicago Boogie
TTITLE1=Julia Lee - Dream Lucky Blues
TTITLE2=Albert Ammons - Suitcase Blues
TTITLE3=Jay Mcshann With Crown Prince Waterford - Garfield Avenue Boogie
TTITLE4=Sunnyland Slim - Johnson Machine Gun
TTITLE5=Little Johnny Jones - Shelby County Blues
TTITLE6=Forrest Sykes - Tonky Boogie
TTITLE7=Eddie Boyd - Picture In The Frame
TTITLE8=Henry Gray - I Declare That Ain't Right
TTITLE9=Willie Mabon - Got To Have It
TTITLE10=The Big Three Trio - The Winkles
TTITLE11=Floyd Dixon - Alarm Clock Blues
TTITLE12=Lloyd Glenn - The Shakedown
TTITLE13=Charles Brown - New Orleans Blues
TTITLE14=Roosevelt Sykes - 44 Blues
TTITLE15=Memphis Slim - You Called Me At Last
TTITLE16=Professor Longhair - Tipitina
TTITLE17=Muddy Waters and Otis Spann - Goodbye Newport Blues
EXTD=YEAR: 2000
EXTT0=
EXTT1=
EXTT2=
EXTT3=
EXTT4=
EXTT5=
EXTT6=
EXTT7=
EXTT8=
EXTT9=
EXTT10=
EXTT11=
EXTT12=
EXTT13=
EXTT14=
EXTT15=
EXTT16=
EXTT17=
PLAYORDER=
